<?xml version="1.0" encoding="utf-8"?>
<!-- Generator: Adobe Illustrator 25.1.0, SVG Export Plug-In . SVG Version: 6.00 Build 0)  -->
<svg version="1.1" id="Camada_1" xmlns="http://www.w3.org/2000/svg" xmlns:xlink="http://www.w3.org/1999/xlink" x="0px" y="0px"
	 viewBox="60 335 690 135" style="enable-background:new 0 0 800 800;" xml:space="preserve">
<style type="text/css">
	.st0{fill:#08090A;}
	.st1{fill:#3F3F3F;}
	.st2{fill:#4A7E94;}
	.st3{fill:#FFFFFF;}
</style>
<g>
	<g>
		<path class="st0" d="M687.8,405.39c0,7.47,1.61,13.19,4.85,17.17c3.23,3.98,7.95,5.97,14.17,5.97c3.47,0,6.4-0.55,8.78-1.64
			c2.38-1.09,4.83-2.89,7.33-5.39l4.6,3.63c-1.45,1.45-2.93,2.74-4.42,3.85c-1.5,1.12-3.07,2.05-4.72,2.8
			c-1.66,0.75-3.45,1.3-5.39,1.66c-1.94,0.35-4.12,0.53-6.54,0.53c-8.08,0-14.23-2.54-18.47-7.63c-4.24-5.09-6.36-12.52-6.36-22.29
			c0-9.45,2.06-16.8,6.18-22.05c4.12-5.25,9.85-7.87,17.2-7.87c7.35,0,13.08,2.5,17.2,7.51c4.12,5.01,6.18,11.99,6.18,20.96v2.79
			H687.8z M721.96,396.85c-0.08-1.01-0.2-1.9-0.36-2.67c-0.16-0.77-0.36-1.53-0.61-2.3c-0.24-0.77-0.53-1.59-0.85-2.48
			c-1.29-3.07-3.29-5.47-6-7.21c-2.71-1.74-5.75-2.6-9.15-2.6c-3.39,0-6.44,0.87-9.15,2.6c-2.71,1.74-4.71,4.14-6,7.21
			c-0.41,0.89-0.71,1.72-0.91,2.48c-0.2,0.77-0.38,1.54-0.55,2.3c-0.16,0.77-0.28,1.66-0.36,2.67c-0.08,1.01-0.16,2.2-0.24,3.57
			h34.41C722.12,399.05,722.04,397.86,721.96,396.85z"/>
		<path class="st0" d="M418.81,380.32v53.66h-6.16v-53.66h-7.98v-4.59h7.98v-12.57c0-4.43,1.19-8.08,3.57-10.94
			c2.38-2.86,5.86-4.29,10.45-4.29h14.69v5.44h-13.6c-3.06,0-5.32,0.85-6.77,2.54c-1.45,1.69-2.18,4.07-2.18,7.13v12.69h8.3v4.59
			H418.81z"/>
		<rect x="441.53" y="375.73" class="st0" width="6.16" height="58.25"/>
		<path class="st0" d="M557.84,428.14c-2.97,2.71-5.82,3.66-8.83,4.66c-3.17,0.9-6.53,1.07-10.64,1.07c-4.35,0-7.84-0.4-10.45-1.21
			c-2.62-0.8-4.85-2.18-6.71-4.11c-1.37-1.37-2.42-3.06-3.14-5.08c-0.73-2.01-1.09-4.11-1.09-6.29c0-5.32,1.79-9.44,5.38-12.39
			c3.58-2.94,8.56-4.41,14.93-4.41h18.85v-6.53c0-4.67-1.25-8.22-3.75-10.64c-2.5-2.42-6.73-3.63-12.69-3.63
			c-4.11,0-7.35,0.56-9.73,1.69c-2.38,1.13-4.49,3.02-6.34,5.68l-4.47-3.87c2.5-3.46,5.36-5.82,8.58-7.07
			c3.22-1.25,7.21-1.87,11.96-1.87c7.73,0,13.43,1.65,17.1,4.96c3.66,3.3,5.5,8.02,5.5,14.14v23.87
			C562.05,420.87,561.52,424.19,557.84,428.14z M556.13,405.35H538c-9.91,0-14.87,3.91-14.87,11.72c0,3.87,1.21,6.73,3.63,8.58
			c2.42,1.85,6.28,2.78,11.6,2.78c2.66,0,5.21-0.24,7.67-0.72c2.46-0.48,4.73-1.73,6.83-3.75c2.18-2.01,3.26-5.72,3.26-11.12V405.35
			z"/>
		<path class="st0" d="M670.25,429.21c-1.45,1.17-2.92,2.1-4.41,2.78c-1.49,0.69-3.06,1.17-4.71,1.45c-1.65,0.28-3.49,0.42-5.5,0.42
			c-3.95,0-7.51-0.69-10.7-2.05c-3.18-1.37-5.88-3.34-8.1-5.92c-2.22-2.58-3.91-5.72-5.08-9.43c-1.17-3.71-1.75-7.86-1.75-12.45
			c0-4.59,0.58-8.74,1.75-12.45c1.17-3.7,2.86-6.85,5.08-9.43c2.22-2.58,4.91-4.55,8.1-5.92c3.18-1.37,6.75-2.05,10.7-2.05
			c2.01,0,3.85,0.14,5.5,0.42c1.65,0.28,3.22,0.77,4.71,1.45c1.49,0.68,2.96,1.61,4.41,2.78c1.45,1.17,2.98,2.6,4.59,4.29
			l-4.23,3.87c-2.5-2.74-4.85-4.65-7.07-5.74c-2.22-1.09-4.85-1.63-7.92-1.63c-3.31,0-6.27,0.65-8.88,1.93
			c-2.62,1.29-4.81,3.22-6.59,5.8c-1.45,2.1-2.48,4.41-3.08,6.95s-0.91,5.78-0.91,9.73c0,3.95,0.3,7.19,0.91,9.73
			s1.63,4.85,3.08,6.95c1.77,2.58,3.97,4.51,6.59,5.8c2.62,1.29,5.58,1.93,8.88,1.93c1.53,0,2.94-0.12,4.23-0.36
			c1.29-0.24,2.52-0.64,3.69-1.21c1.17-0.56,2.34-1.33,3.5-2.3c1.17-0.97,2.36-2.13,3.56-3.51l4.23,3.87
			C673.23,426.62,671.7,428.05,670.25,429.21z"/>
		<path class="st0" d="M612.4,380.56c-3.87-3.71-9.02-5.56-15.47-5.56c-0.3,0-0.59,0.03-0.89,0.04c-0.3-0.01-0.59-0.04-0.89-0.04
			c-6.44,0-11.6,1.85-15.47,5.56c-4.03,3.87-6.04,9.27-6.04,16.19v37.22h6.16v-36.13c0-5.64,1.37-9.95,4.11-12.93
			c2.74-2.98,6.73-4.47,11.96-4.47c0.06,0,0.11,0.01,0.16,0.01c0.06,0,0.11-0.01,0.16-0.01c5.24,0,9.22,1.49,11.96,4.47
			c2.74,2.98,4.11,7.29,4.11,12.93v36.13h6.16v-37.22C618.44,389.83,616.42,384.43,612.4,380.56z"/>
		<path class="st0" d="M499.21,380.56c-3.87-3.71-9.02-5.56-15.47-5.56c-0.3,0-0.59,0.03-0.89,0.04c-0.3-0.01-0.59-0.04-0.89-0.04
			c-6.44,0-11.6,1.85-15.47,5.56c-4.03,3.87-6.04,9.27-6.04,16.19v37.22h6.16v-36.13c0-5.64,1.37-9.95,4.11-12.93
			c2.74-2.98,6.73-4.47,11.96-4.47c0.06,0,0.11,0.01,0.16,0.01c0.06,0,0.11-0.01,0.16-0.01c5.24,0,9.22,1.49,11.96,4.47
			c2.74,2.98,4.11,7.29,4.11,12.93v36.13h6.16v-37.22C505.25,389.83,503.24,384.43,499.21,380.56z"/>
	</g>
	<g>
		<path class="st0" d="M317.41,402.93h-58.5c0.84,5.16,3.1,9.26,6.77,12.31c3.67,3.05,8.35,4.57,14.04,4.57
			c6.8,0,12.65-2.38,17.54-7.14l15.34,7.2c-3.83,5.43-8.41,9.44-13.74,12.04c-5.34,2.6-11.67,3.9-19.01,3.9
			c-11.38,0-20.66-3.59-27.82-10.77c-7.16-7.18-10.74-16.18-10.74-26.98c0-11.07,3.57-20.27,10.71-27.58
			c7.14-7.31,16.09-10.97,26.85-10.97c11.43,0,20.72,3.66,27.88,10.97c7.16,7.32,10.74,16.98,10.74,28.98L317.41,402.93z
			 M299.2,388.59c-1.2-4.05-3.58-7.34-7.12-9.87c-3.54-2.53-7.65-3.8-12.33-3.8c-5.08,0-9.53,1.42-13.36,4.27
			c-2.41,1.78-4.63,4.91-6.68,9.41H299.2z"/>
		<path class="st0" d="M329.34,368.76h18.46v-0.02c4.19-3.53,7.98-5.98,11.38-7.36c3.4-1.38,6.88-2.07,10.44-2.07
			c7.29,0,13.48,2.55,18.57,7.64c4.28,4.33,6.41,10.73,6.41,19.21v48.63h-18.26v-32.22c0-8.78-0.39-14.61-1.18-17.5
			c-0.79-2.88-2.16-5.08-4.12-6.59c-1.96-1.51-4.37-2.26-7.25-2.26c-3.73,0-6.94,1.25-9.61,3.75c-2.68,2.5-4.53,5.96-5.57,10.37
			c-0.54,2.3-0.81,7.27-0.81,14.93v29.52h-18.46V368.76z"/>
		<path class="st0" d="M178.64,369.53v-0.22c3.34-3.34,6.94-5.84,10.82-7.51c3.88-1.67,8.02-2.5,12.44-2.5
			c9.6,0,17.76,3.63,24.48,10.89c6.72,7.26,10.08,16.57,10.08,27.93c0,10.96-3.47,20.12-10.41,27.49
			c-6.94,7.37-15.17,11.06-24.68,11.06c-4.24,0-8.18-0.75-11.84-2.27c-3.65-1.51-7.28-3.98-10.89-7.41v25.74h-18.33v-83.21H178.64z
			 M198.05,376.35c-5.82,0-10.64,1.98-14.47,5.95c-3.83,3.97-5.75,9.15-5.75,15.56c0,6.54,1.92,11.82,5.75,15.86
			c3.72,3.92,8.37,5.93,13.96,6.05c5.07,0.11,10.08-1.7,13.77-5.17c4.51-4.24,6.76-9.8,6.76-16.67c0-6.31-1.89-11.48-5.68-15.52
			C208.6,378.37,203.82,376.35,198.05,376.35z"/>
	</g>
	<path class="st0" d="M148.1,378.23c-3.43-5.95-8.19-10.66-14.3-14.13c-5.38-3.06-11.08-4.77-17.1-5.13v17.4
		c4.9,0.44,8.99,2.38,12.29,5.82c3.77,3.95,5.66,9.07,5.66,15.39c0,6.31-1.92,11.47-5.76,15.49c-3.84,4.01-8.65,6.02-14.43,6.02
		c-5.29,0-9.73-1.67-13.34-4.98l-12.34,12.34c7.16,6.54,15.66,9.82,25.51,9.82c7.17,0,13.73-1.7,19.68-5.11
		c6.01-3.44,10.74-8.22,14.2-14.35c3.27-5.79,5.02-12.36,5.07-19.01C153.28,390.79,151.57,384.26,148.1,378.23z"/>
	<g>
		<path class="st0" d="M100.82,381.62c3.19-3.06,7-4.81,11.46-5.24v-29.12c-11.36,0.83-22.14,6.29-29.7,16.12L100.82,381.62z"/>
		<path class="st0" d="M94.52,395.8c0.25-4.12,1.41-7.71,3.46-10.78l-18.54-18.54c-6.42,8.96-8.73,20.39-7.5,29.32H94.52z"/>
		<path class="st0" d="M94.58,400.21H71.94c1.73,10.31,7.51,17.99,13.73,23.09l12.53-12.53C96.14,407.8,94.94,404.28,94.58,400.21z"
			/>
	</g>
</g>
</svg>
